<?xml version="1.0" encoding="utf-8"?>
<!-- Generator: Adobe Illustrator 25.4.1, SVG Export Plug-In . SVG Version: 6.00 Build 0)  -->
<svg version="1.0" id="Layer_1" xmlns="http://www.w3.org/2000/svg" xmlns:xlink="http://www.w3.org/1999/xlink" x="0px" y="0px"
	 viewBox="0 0 37 50" enable-background="new 0 0 37 50" xml:space="preserve">
<g>
	<path fill="#FFFFFF" d="M18.5,49C8.9,49,1,41.1,1,31.5C1,22.9,15.1,5.6,18.5,1.5C22,5.6,36,22.9,36,31.5C36,41.1,28.2,49,18.5,49z"
		/>
	<path fill="#231F20" d="M18.5,3.1C24.2,10,35,24.4,35,31.5C35,40.6,27.6,48,18.5,48S2,40.6,2,31.5C2,24.4,12.8,10,18.5,3.1 M18.5,0
		C18.5,0,0,21.3,0,31.5S8.3,50,18.5,50S37,41.7,37,31.5S18.5,0,18.5,0L18.5,0z"/>
</g>
<path fill="#231F20" d="M19.5,45.5c-8.3,0-13.5-6.2-14.2-11.9c-0.5-3.8,2.9-12,6.5-14.6C8.1,28,10.1,40.7,19.5,45.5z"/>
</svg>
