<svg id="Layer_1" data-name="Layer 1" xmlns="http://www.w3.org/2000/svg" viewBox="0 0 158.01 158.01">
  <rect class="cls-1" x="23.5" y="29.41" width="71.51" height="11.27"></rect>
  <rect class="cls-1" x="23.5" y="58.72" width="34.42" height="11.27"></rect>
  <rect class="cls-1" x="23.5" y="88.02" width="18" height="11.27"></rect>
  <rect class="cls-1" x="23.5" y="117.33" width="18" height="11.27"></rect>
  <path class="cls-1" d="M151.51,31.27c-4.26-4.26-9.93-6.61-15.95-6.61s-11.69,2.35-15.95,6.61l-.99.99v-12.6C118.61,8.88,109.84.11,99.07.11H19.46C8.68.11-.09,8.88-.09,19.66v118.7c0,10.78,8.77,19.55,19.55,19.55h79.61c10.78,0,19.55-8.77,19.55-19.55v-42.28l32.9-32.9c8.8-8.8,8.8-23.11,0-31.91ZM107.34,43.53l-53.18,53.18.22,31.69,31.69.22,21.27-21.27v31.01c0,4.56-3.71,8.27-8.27,8.27H19.46c-4.56,0-8.27-3.71-8.27-8.27V19.66c0-4.56,3.71-8.27,8.27-8.27h79.61c4.56,0,8.27,3.71,8.27,8.27v23.88ZM65.58,117.2l-.11-15.85,50.08-50.08,15.96,15.97-50.08,50.08-15.85-.11ZM135.55,35.94c3.02,0,5.85,1.17,7.98,3.3,2.13,2.13,3.3,4.96,3.3,7.98s-1.17,5.85-3.3,7.98l-4.05,4.05-15.96-15.97,4.05-4.05c2.13-2.13,4.96-3.3,7.98-3.3Z"></path>
</svg>