<svg version="1.0" id="ICONS" xmlns="http://www.w3.org/2000/svg" xmlns:xlink="http://www.w3.org/1999/xlink" x="0px" y="0px" viewBox="0 0 20 20" style="enable-background:new 0 0 20 20;" xml:space="preserve">
<style type="text/css">
</style>
<g>
	<path d="M2.5,15H5v1.7c0,0.9-0.7,1.7-1.7,1.7c-0.5,0-0.8,0.4-0.8,0.8c0,0.5,0.4,0.8,0.8,0.8c1,0,1.9-0.4,2.5-1.1
		C6.4,19.6,7.3,20,8.3,20c0.5,0,0.8-0.4,0.8-0.8c0-0.5-0.4-0.8-0.8-0.8c-0.9,0-1.7-0.7-1.7-1.7V3.3c0-0.9,0.7-1.7,1.7-1.7
		c0.5,0,0.8-0.4,0.8-0.8S8.8,0,8.3,0c-1,0-1.9,0.4-2.5,1.1C5.2,0.4,4.3,0,3.3,0C2.9,0,2.5,0.4,2.5,0.8s0.4,0.8,0.8,0.8
		C4.3,1.7,5,2.4,5,3.3V5H2.5C1.1,5,0,6.1,0,7.5l0,0v5C0,13.9,1.1,15,2.5,15z M1.7,7.5c0-0.5,0.4-0.8,0.8-0.8H5v6.7H2.5
		c-0.5,0-0.8-0.4-0.8-0.8V7.5z"></path>
	<path d="M17.5,13.3H9.2c-0.5,0-0.8,0.4-0.8,0.8c0,0.5,0.4,0.8,0.8,0.8h8.3c1.4,0,2.5-1.1,2.5-2.5v-5
		C20,6.1,18.9,5,17.5,5H9.2C8.7,5,8.4,5.4,8.4,5.8c0,0.4,0.4,0.8,0.8,0.8h8.3c0.5,0,0.8,0.4,0.8,0.8v5
		C18.3,12.9,17.9,13.3,17.5,13.3z"></path>
</g>
</svg>