<svg version="1.0" id="Layer_4" fill="#fff" xmlns="http://www.w3.org/2000/svg" xmlns:xlink="http://www.w3.org/1999/xlink" x="0px" y="0px" viewBox="0 0 19.9 20" style="enable-background:new 0 0 19.9 20;" xml:space="preserve">
<style type="text/css">
</style>
<g>
	<path fill="#fff" d="M10.8,2.5H3.3C1.5,2.5,0,4,0,5.8v10.8C0,18.5,1.5,20,3.3,20h10.8c1.8,0,3.3-1.5,3.3-3.3V9.2
		c0-0.5-0.4-0.8-0.8-0.8c-0.5,0-0.8,0.4-0.8,0.8V13l-2.7-2.7c-0.3-0.3-0.9-0.3-1.2,0l0,0L10,12.1L7.3,9.4C7,9.1,6.4,9.1,6.1,9.4l0,0
		l-4.4,4.4v-8c0-0.9,0.7-1.7,1.7-1.7h7.5c0.5,0,0.8-0.4,0.8-0.8S11.3,2.5,10.8,2.5z M6.7,11.2l2.7,2.7c0.3,0.3,0.9,0.3,1.2,0l0,0
		l1.9-1.9l3.3,3.3v1.3c0,0.9-0.7,1.7-1.7,1.7H3.3c-0.9,0-1.7-0.7-1.7-1.7v-0.5L6.7,11.2z"></path>
	<path d="M19.1,2.5h-1.7V0.8C17.4,0.3,17,0,16.6,0c-0.5,0-0.8,0.4-0.8,0.8v1.7h-1.7c-0.5,0-0.8,0.4-0.8,0.8
		s0.4,0.8,0.8,0.8h1.7v1.7c0,0.5,0.4,0.8,0.8,0.8c0.5,0,0.8-0.4,0.8-0.8V4.2h1.7c0.5,0,0.8-0.4,0.8-0.8S19.6,2.5,19.1,2.5z"></path>
	<circle cx="10.4" cy="7.1" r="1.2"></circle>
</g>
</svg>