<svg version="1.0" id="Layer_1" fill="#27a6ff" xmlns="http://www.w3.org/2000/svg" xmlns:xlink="http://www.w3.org/1999/xlink" x="0px" y="0px" viewBox="0 0 19.626 20" style="enable-background:new 0 0 19.626 20;" xml:space="preserve">
<style type="text/css">

</style>
<g id="Layer_6">
	<g id="Layer_5">
		<path d="M0.588,20c0.3,0,0.5-0.2,0.5-0.5c0-0.1,0-0.1,0-0.2c-0.3-1.1,0.3-2.2,1.3-2.5h0.1l4.3-1
			c0.8,0.8,1.9,1.2,3,1.2h0.1c1.1,0,2.1-0.5,2.9-1.2l4.3,1c1.1,0.3,1.7,1.3,1.5,2.4v0.1c-0.1,0.3,0.1,0.6,0.3,0.6
			c0.3,0.1,0.6-0.1,0.6-0.3c0.5-1.6-0.4-3.3-2-3.8c-0.1,0-0.1,0-0.2-0.1l-4.2-1l0,0V14c0-0.3-0.2-0.5-0.5-0.5s-0.5,0.2-0.5,0.5v1
			c-0.6,0.6-1.4,0.9-2.2,1c-0.9,0-1.8-0.3-2.4-1v-1.7c0-0.2-0.1-0.4-0.2-0.5c-0.5-0.7-0.8-1.5-0.9-2.4V6.7c0-1.9,1.5-3.4,3.4-3.4
			s3.4,1.5,3.4,3.4v3.5c0,0.7-0.5,1.2-1.2,1.2h-0.6c-0.3-0.8-1.1-1.2-1.9-0.9c-0.8,0.3-1.2,1.1-0.9,1.9s1.1,1.2,1.9,0.9
			c0.4-0.2,0.8-0.5,0.9-0.9h0.6c1,0,1.9-0.7,2.1-1.7h0.9c0.8,0,1.5-0.7,1.5-1.5V6.7c0-3.7-3-6.7-6.8-6.7c-3.6,0-6.6,3-6.6,6.8v0.6
			l0,0v1.8c0,0.8,0.7,1.5,1.5,1.5h0.9c0.1,1,0.5,1.9,1,2.7v1.4l-4.2,1c-1.6,0.4-2.6,2-2.2,3.6c0,0.1,0,0.1,0.1,0.2
			C0.188,19.8,0.388,20,0.588,20z M9.988,12.3c-0.3,0-0.5-0.2-0.5-0.5s0.2-0.5,0.5-0.5s0.5,0.2,0.5,0.5S10.288,12.3,9.988,12.3
			L9.988,12.3z M15.588,9.1c0,0.3-0.2,0.5-0.5,0.5h-0.8V6.9h0.8c0.3,0,0.5,0.2,0.5,0.5V9.1z M5.788,2.7c2.2-2.2,5.9-2.3,8.1,0
			c0.9,0.9,1.5,2,1.6,3.3c-0.1,0-0.3-0.1-0.4-0.1h-0.9c-0.4-2.4-2.7-4-5.1-3.6c-1.8,0.3-3.3,1.8-3.6,3.6h-0.9c-0.1,0-0.3,0-0.4,0.1
			C4.288,4.7,4.888,3.6,5.788,2.7z M4.088,9.1V7.5l0,0V7.4c0-0.3,0.2-0.5,0.5-0.5h0.9v2.7h-0.9C4.288,9.6,4.088,9.4,4.088,9.1z"></path>
	</g>
</g>
</svg>