<svg viewBox="0 0 24 24" fill="#2563EB"   xmlns="http://www.w3.org/2000/svg" class="jss39"><path d="M17.833,4.844h-1.667V4.5c0-1.381-1.119-2.5-2.5-2.5H2.834C2.373,2,2,2.373,2,2.833 s0.373,0.833,0.833,0.833h10.833c0.46,0,0.833,0.373,0.833,0.833V12c0,0.46,0.373,0.833,0.833,0.833h5V17 c0,0.46-0.373,0.833-0.833,0.833H19.38c-0.451-1.775-2.256-2.849-4.031-2.398c-1.178,0.299-2.099,1.22-2.398,2.398h-1.904 c-0.451-1.775-2.256-2.849-4.031-2.398c-1.178,0.299-2.099,1.22-2.398,2.398H4.5c-0.46,0-0.833-0.373-0.833-0.833v-0.833 c0-0.46-0.373-0.833-0.833-0.833S2,15.706,2,16.166v0.833c0,1.381,1.119,2.5,2.5,2.5h0.119c0.451,1.775,2.256,2.849,4.031,2.398 c1.178-0.299,2.099-1.22,2.398-2.398h1.904c0.451,1.775,2.256,2.849,4.031,2.398c1.178-0.299,2.099-1.22,2.398-2.398H19.5 c1.381,0,2.5-1.119,2.5-2.5V9.01C22,6.709,20.134,4.844,17.833,4.844L17.833,4.844z M7.833,20.333c-0.92,0-1.667-0.746-1.667-1.667 c0-0.92,0.746-1.667,1.667-1.667S9.5,17.746,9.5,18.666S8.754,20.333,7.833,20.333z M16.167,20.333 c-0.92,0-1.667-0.746-1.667-1.667c0-0.92,0.746-1.667,1.667-1.667s1.667,0.746,1.667,1.667 C17.833,19.586,17.087,20.333,16.167,20.333z M16.167,6.51h1.667c1.381,0,2.5,1.119,2.5,2.5v2.156h-4.167V6.51z"></path><path d="M2.834,7h3.333C6.627,7,7,6.627,7,6.166S6.627,5.333,6.167,5.333H2.834C2.373,5.333,2,5.706,2,6.166 S2.373,7,2.834,7z"></path><path d="M2.834,10.333h5.833C9.127,10.333,9.5,9.96,9.5,9.5S9.127,8.667,8.667,8.667H2.834 C2.373,8.666,2,9.039,2,9.5C2,9.96,2.373,10.333,2.834,10.333z"></path><path d="M2.834,13.666h3.333c0.46,0,0.833-0.373,0.833-0.833S6.627,12,6.167,12H2.834C2.373,12,2,12.373,2,12.833 S2.373,13.666,2.834,13.666z"></path></svg>