<svg version="1.0" id="Layer_1" xmlns="http://www.w3.org/2000/svg" xmlns:xlink="http://www.w3.org/1999/xlink" x="0px" y="0px" viewBox="0 0 20 20" enable-background="new 0 0 20 20" xml:space="preserve">
<path fill="#fff" d="M0.4,3.9L0.1,3.8l0.4-0.1C2,3.2,3.2,2,3.7,0.4l0.1-0.4l0.1,0.4C4.4,2,5.6,3.2,7.1,3.7l0.4,0.1l0,0l0,0L7.1,3.9
	C5.6,4.3,4.4,5.6,3.9,7.1L3.8,7.5l0,0l0,0L3.7,7.1C3.2,5.6,2,4.3,0.4,3.9z M17.1,12.9l-0.2-0.6l-0.2,0.6c-0.3,1.1-1.2,2-2.3,2.3
	l-0.6,0.2l0.6,0.2c1.1,0.3,2,1.2,2.3,2.3l0.2,0.6l0.2-0.6c0.3-1.1,1.2-2,2.3-2.3l0.6-0.2l-0.6-0.2C18.2,14.9,17.4,14,17.1,12.9z
	 M11.5,15.8l-0.1-0.4l-0.1,0.4c-0.2,0.8-0.9,1.5-1.7,1.7l-0.4,0.1l0.4,0.1c0.8,0.2,1.5,0.9,1.7,1.7l0.1,0.4l0.1-0.4
	c0.2-0.8,0.9-1.5,1.7-1.7l0.4-0.1l-0.4-0.1C12.4,17.3,11.7,16.7,11.5,15.8z M16.9,10.2l0.3,0.1c0.6,0.2,1,0.6,1.1,1.1l0.1,0.3
	l0.1-0.3c0.2-0.6,0.6-1,1.1-1.1l0.3-0.1l-0.3-0.1c-0.6-0.2-1-0.6-1.1-1.1l-0.1-0.3l-0.1,0.3c-0.2,0.6-0.6,1-1.1,1.1L16.9,10.2z
	 M9.1,2.5l0.1,0.3l0.1-0.3c0.1-0.5,0.5-0.9,1-1l0.3-0.1l-0.3-0.1c-0.5-0.1-0.9-0.5-1-1L9.2,0.1L9.1,0.3c-0.1,0.5-0.5,0.9-1,1
	L7.9,1.4l0.3,0.1C8.6,1.6,9,2,9.1,2.5z M17.5,4.6L2.4,19.7C2.2,19.9,2,20,1.7,20c-0.3,0-0.5-0.1-0.7-0.3L0.3,19
	c-0.4-0.4-0.4-1,0-1.4L15.4,2.5c0.2-0.2,0.4-0.3,0.7-0.3c0.3,0,0.5,0.1,0.7,0.3l0.7,0.7C17.9,3.6,17.9,4.3,17.5,4.6z M13.8,6.9
	l-0.7-0.7L1,18.3L1.7,19L13.8,6.9z"></path>
</svg>