<svg viewBox="0 0 24 24" fill="#2563EB" xmlns="http://www.w3.org/2000/svg" class="jss39"><path d="M2.834,8.667v12.5c0,0.46,0.373,0.833,0.833,0.833h4.167 c0.46,0,0.833-0.373,0.833-0.833v-0.833h8.223c0.878,0,1.692-0.461,2.144-1.215c1.396-2.326,2.133-4.987,2.133-7.7v-0.252 c0-1.381-1.119-2.5-2.5-2.5l-2.829-0.033c1.119-2.708,0.954-4.908-0.46-6.173c-0.356-0.306-0.812-0.47-1.281-0.46 C13,2.004,12.105,2.876,12.075,3.971C12.027,5.257,11.531,7.119,9.5,8.644L8.667,9.161V8.667c0-0.46-0.373-0.833-0.833-0.833H3.667 C3.207,7.834,2.834,8.207,2.834,8.667z M10.442,10.019c2.752-2.062,3.248-4.635,3.3-5.985c-0.002-0.199,0.156-0.362,0.354-0.367 c0.058-0.004,0.117,0.008,0.169,0.035C15.412,4.725,14.777,6.827,14.298,8c-0.356,0.863,0.056,1.85,0.918,2.206 c0.205,0.084,0.425,0.128,0.646,0.127h2.804c0.46,0,0.833,0.373,0.833,0.833v0.252c0,2.411-0.656,4.776-1.896,6.843 c-0.151,0.251-0.422,0.404-0.715,0.404H8.667v-7.55L10.442,10.019z M4.5,9.5H7v10.833H4.5V9.5z"></path></svg>