<svg version="1.0" id="Layer_1" fill="#27a6ff" xmlns="http://www.w3.org/2000/svg" xmlns:xlink="http://www.w3.org/1999/xlink" x="0px" y="0px" viewBox="0 0 18.3 19.917" style="enable-background:new 0 0 18.3 19.917;" xml:space="preserve">
<style type="text/css">
</style>
<path d="M12.4,12.517v-4.7c0-1.1-0.9-2-2-2H2c-1.1,0-2,0.9-2,2v4.7c0,1.1,0.9,2,2,2h1.4v0.5c0,0.6,0.5,1.1,1.1,1.1
	c0.3,0,0.6-0.1,0.8-0.3l1.2-1.2h3.9C11.5,14.517,12.4,13.617,12.4,12.517z M6.3,13.417c-0.1,0-0.3,0.1-0.4,0.2l-1.4,1.4H4.4
	c0,0,0,0,0-0.1v-1c0-0.3-0.2-0.5-0.5-0.5H2c-0.5,0-1-0.4-1-1v-4.6c0-0.5,0.4-1,1-1h8.5c0.5,0,1,0.4,1,1v4.7c0,0.5-0.4,1-1,1l0,0H6.3
	V13.417z M9.7,8.917c0,0.3-0.2,0.5-0.5,0.5h-6c-0.3,0-0.5-0.2-0.5-0.5s0.2-0.5,0.5-0.5h6C9.5,8.417,9.7,8.617,9.7,8.917L9.7,8.917z
	 M7.8,11.117c0,0.3-0.2,0.5-0.5,0.5H3.2c-0.3,0-0.5-0.2-0.5-0.5s0.2-0.5,0.5-0.5h4.1C7.6,10.617,7.8,10.817,7.8,11.117L7.8,11.117z
	 M18.3,10.117c0,0.8,0,1.5,0,2.3c0,0.6-0.3,1.3-0.9,1.6h-0.1c-0.4,3.1-3,5.4-6.1,5.4h-0.1c-0.3,0.3-0.7,0.5-1.1,0.5H8.2
	c-0.9,0-1.6-0.7-1.6-1.5v-1c0-0.9,0.7-1.6,1.6-1.6H10c0.4,0,0.8,0.2,1.1,0.5h0.2c1.4,0,2.7-1,2.9-2.5c-0.2-0.2-0.3-0.5-0.4-0.7
	c-0.1-0.3-0.1-0.6-0.1-0.9c0-0.7,0-1.4,0-2.1c0-0.3,0-0.6,0.1-0.8c0.1-0.5,0.4-0.8,0.8-1.1c0-0.1,0-0.3,0-0.4
	c-0.5-3-3.4-5.1-6.4-4.7c-1.2,0.2-2.4,0.7-3.2,1.5c-0.2,0.2-0.5,0.2-0.7,0c-0.2-0.2-0.2-0.5,0-0.7l0,0c1-1,2.3-1.6,3.7-1.8
	c3.6-0.5,7,1.9,7.6,5.5c0,0.3,0.1,0.6,0.1,0.9l0,0c0,0.2-0.1,0.4-0.3,0.5c-0.3,0.1-0.5,0.3-0.6,0.6c0,0.2-0.1,0.3-0.1,0.5
	c0,0.8,0,1.5,0,2.1c0,0.2,0,0.4,0.1,0.6c0.1,0.2,0.2,0.3,0.3,0.5c0.1,0.1,0.2,0.3,0.2,0.4c-0.2,2-1.9,3.6-4,3.6h-0.4
	c-0.2,0-0.3-0.1-0.4-0.2c-0.1-0.1-0.3-0.2-0.4-0.2H8.3c-0.3,0-0.5,0.2-0.5,0.5l0,0v1c0,0.3,0.2,0.5,0.5,0.5h1.8
	c0.2,0,0.3-0.1,0.4-0.2s0.3-0.2,0.4-0.2h0.4c2.7,0,4.9-2.1,5.1-4.7c0-0.2,0.1-0.3,0.3-0.4c0.1,0,0.1-0.1,0.2-0.1
	c0.3-0.2,0.4-0.5,0.5-0.8c0-0.7,0-1.5,0-2.2c0-0.3-0.1-0.6-0.4-0.7c-0.1-0.1-0.2-0.3-0.2-0.4c0.1-2-0.7-4-2-5.4
	c-1.1-1.2-2.5-2.1-4.1-2.4c-3-0.6-5.6,0.3-7.6,2.6c-0.3,0-0.5,0.3-0.7,0.6c-0.2,0.2-0.5,0.3-0.7,0.1c-0.3-0.2-0.3-0.5-0.2-0.7l0,0
	c0.2-0.3,0.4-0.6,0.7-0.9c2.3-2.6,5.1-3.6,8.5-2.9c1.8,0.3,3.5,1.3,4.7,2.7c1.5,1.6,2.3,3.7,2.3,5.9
	C18.1,9.217,18.3,9.617,18.3,10.117L18.3,10.117z"></path>
</svg>