<svg version="1.1" id="Layer_1" xmlns="http://www.w3.org/2000/svg" xmlns:xlink="http://www.w3.org/1999/xlink" x="0px" y="0px" viewBox="0 0 562.1 562.1" style="enable-background:new 0 0 562.1 562.1;" xml:space="preserve">
<path fill="#fff" d="M479.7,82.3C369.9-27.5,192-27.4,82.3,82.4c-89.2,89.2-108,226.9-46,336.7L1,532.8c-3.7,11.9,3,24.5,14.8,28.2
	c4.5,1.4,9.3,1.3,13.8-0.2L139.9,524C274,602,446,556.5,524,422.3C588.2,312,570,172.4,479.7,82.3z M447.9,447.9
	c-78.1,78.1-199.9,91.6-293.2,32.5c-1-0.6-2-1.2-3.1-1.6l-0.2-0.1c-0.3-0.1-0.5-0.2-0.8-0.3l-0.5-0.2l-0.5-0.2l-0.5-0.2l-0.6-0.2
	l-0.4-0.1l-0.6-0.2l-0.3-0.1l-0.8-0.2h-0.1c-3.6-0.6-7.3-0.3-10.7,0.9L57,504.3l25.2-81.4c0-0.1,0-0.2,0.1-0.3s0.1-0.2,0.1-0.4
	s0.1-0.5,0.2-0.8c0-0.1,0-0.1,0.1-0.2c0.1-0.3,0.1-0.6,0.2-0.9l0,0c0.5-2.8,0.5-5.8-0.1-8.6l0,0c-0.1-0.4-0.1-0.7-0.2-1
	c0-0.1-0.1-0.2-0.1-0.3c-0.1-0.3-0.1-0.5-0.2-0.8l-0.1-0.4c-0.1-0.2-0.1-0.5-0.2-0.7l-0.1-0.3c-0.1-0.2-0.2-0.5-0.3-0.7l-0.1-0.3
	c-0.1-0.3-0.2-0.5-0.3-0.8c0-0.1-0.1-0.1-0.1-0.2c-0.1-0.3-0.3-0.5-0.4-0.8l-0.1-0.1c-0.1-0.3-0.3-0.6-0.5-0.9l0,0
	C11.8,293.5,46.6,148.2,157.6,80s256.4-33.4,324.6,77.7c57.1,93,42.9,213.1-34.2,290.3L447.9,447.9z M441.5,372
	c0,13.6-10.6,24.2-23.4,24.2H312.8c-15.8,0-29.4-13.6-29.4-30.3c0.1-8.8,3.9-17.1,10.5-22.8c77.9-70.4,89.4-83.4,89.4-104.4
	c0-14.3-10.9-24.2-26.4-24.2c-12.5,0-23.4,4.1-33.7,11.9c-4,2.8-8.7,4.4-13.5,4.4c-12.9,0-23.4-10.9-23.4-24.1
	c0-7.5,3.6-14.6,9.6-19.1c17.8-15,39.3-21.8,62.4-21.8c46.9,0,79.2,28.6,79.2,72.1c0,32.7-19.5,59.5-74.2,110.2h54.8
	C431.2,348.3,441.6,358.9,441.5,372C441.5,371.9,441.5,372,441.5,372z M268.3,372c0,13.6-10.6,24.2-23.4,24.2H163
	c-12.9,0-23.4-10.5-23.4-24.2c-0.1-13,10.4-23.7,23.4-23.8c0,0,0,0,0.1,0h13.9V239.6l-19.1,20.1c-3.9,4.4-9.6,6.9-15.5,6.8
	c-11.9,0-21.8-10.2-21.8-22.5c0.1-6,2.4-11.7,6.6-16l50.8-52.4c5.7-5.9,13.6-9.2,21.8-9.2c17.2,0,30.7,14.3,30.7,31.6v150.1h14.5
	C257.9,348.3,268.4,358.9,268.3,372C268.3,371.9,268.3,372,268.3,372z"></path>
</svg>