<svg xmlns="http://www.w3.org/2000/svg" fill="#2563EB" viewBox="0 0 24 24" class="jss39"><g><path d="M20.333,8.667h-0.625c-0.272-0.583-0.623-1.126-1.042-1.615V3.668c0-0.46-0.373-0.833-0.833-0.833 c-1.411-0.033-2.76,0.581-3.662,1.667H9.33c-3.883,0-7.098,2.917-7.316,6.666c-0.089,1.455,0.275,2.902,1.042,4.142 c0.693,1.068,1.262,2.213,1.696,3.41l0.625,1.875c0.112,0.342,0.432,0.573,0.792,0.573H9.5c0.46,0,0.833-0.373,0.833-0.833v-1.667 H12v1.667c0,0.46,0.373,0.833,0.833,0.833h3.333c0.316,0,0.605-0.178,0.746-0.46l2.083-4.144c1.145-0.555,2.13-1.392,2.862-2.433 c0.093-0.136,0.142-0.298,0.142-0.462v-3.333C22,9.414,21.254,8.667,20.333,8.667z M20.333,13.39 c-0.315,0.4-1.14,1.319-2.244,1.735c-0.202,0.074-0.369,0.223-0.465,0.417L15.652,19.5h-1.985v-1.667 c0-0.46-0.373-0.833-0.833-0.833H9.5c-0.46,0-0.833,0.373-0.833,0.833V19.5h-1.9l-0.435-1.308 c-0.472-1.324-1.095-2.588-1.858-3.769c-0.59-0.947-0.871-2.053-0.806-3.167c0.177-2.854,2.66-5.089,5.662-5.089h5.25 c0.271,0,0.525-0.131,0.681-0.352c0.408-0.608,1.028-1.043,1.74-1.219v2.769c-0.003,0.208,0.071,0.409,0.208,0.565 c0.499,0.532,0.884,1.161,1.131,1.848c0.119,0.337,0.44,0.561,0.798,0.556h1.196L20.333,13.39L20.333,13.39z"></path><circle cx="16.167" cy="9.501" r="0.833"></circle></g></svg>