<svg viewBox="0 0 24 24" fill="#2563EB" xmlns="http://www.w3.org/2000/svg" class="jss39"><path d="M21.166,15.827l-3.821-3.825l3.542-3.542c1.478-1.476,1.479-3.871,0.003-5.349 s-3.871-1.479-5.349-0.003L12,6.65L8.175,2.836c-1.109-1.108-2.907-1.108-4.017,0L2.834,4.161c-1.108,1.109-1.108,2.907,0,4.017 l3.821,3.825L5.03,13.628c-1.411,1.403-2.201,3.312-2.196,5.302v1.406c0,0.46,0.373,0.833,0.833,0.833h1.406 c1.99,0.005,3.899-0.785,5.302-2.196L12,17.348l3.825,3.821c1.11,1.106,2.906,1.106,4.017,0l1.325-1.325 C22.275,18.734,22.275,16.936,21.166,15.827z M16.727,4.294c0.825-0.825,2.162-0.825,2.987,0c0.395,0.395,0.617,0.929,0.619,1.487 c0.002,0.562-0.224,1.1-0.625,1.494l-3.542,3.542l-2.987-2.981L16.727,4.294z M9.196,17.793c-1.091,1.097-2.575,1.713-4.123,1.708 H4.5v-0.573c-0.004-1.547,0.611-3.032,1.708-4.123l1.625-1.625l2.987,2.987L9.196,17.793z M19.991,18.668l-1.325,1.325 c-0.456,0.46-1.198,0.464-1.659,0.008c-0.003-0.003-0.005-0.005-0.008-0.008L4.009,7.002C3.548,6.545,3.546,5.801,4.004,5.34 c0.002-0.002,0.003-0.003,0.005-0.005L5.334,4.01c0.459-0.46,1.204-0.461,1.665-0.002C6.999,4.009,7,4.01,7,4.011l0.904,0.908 L6.411,6.413c-0.326,0.326-0.326,0.854,0,1.179s0.854,0.326,1.179,0l1.494-1.494l1.321,1.321l-0.66,0.66 c-0.326,0.326-0.326,0.854,0,1.179s0.854,0.326,1.179,0l0.66-0.66l1.321,1.321l-1.494,1.494c-0.326,0.326-0.326,0.854,0,1.179 s0.854,0.326,1.179,0l1.494-1.494l1.321,1.321l-0.66,0.66c-0.326,0.326-0.326,0.854,0,1.179c0.326,0.326,0.854,0.326,1.179,0 l0.66-0.66l1.321,1.321l-1.494,1.494c-0.326,0.326-0.326,0.854,0,1.179s0.854,0.326,1.179,0l1.494-1.494l0.908,0.904 c0.46,0.457,0.462,1.201,0.005,1.662C19.995,18.665,19.993,18.667,19.991,18.668z"></path></svg>