<svg version="1.0" id="ICONS" xmlns="http://www.w3.org/2000/svg" xmlns:xlink="http://www.w3.org/1999/xlink" x="0px" y="0px" viewBox="0 0 19.948 18.2" style="enable-background:new 0 0 19.948 18.2;" xml:space="preserve">
<style type="text/css">
</style>
<g>
	<path d="M9.948,18.2c0.5,0,0.8-0.4,0.8-0.8V8.6l1.1,1.1c0.3,0.3,0.9,0.3,1.2,0c0.3-0.3,0.3-0.9,0-1.2l-2.5-2.5
		c-0.3-0.3-0.9-0.3-1.2,0l0,0l-2.5,2.5c-0.3,0.3-0.3,0.9,0,1.2c0.3,0.3,0.9,0.3,1.2,0l1.1-1.1v8.8C9.148,17.9,9.448,18.2,9.948,18.2
		z"></path>
	<path d="M15.748,4.2c-0.2-2.4-2.2-4.2-4.6-4.2c-1.4,0-2.5,0.5-3.4,1.7h-0.7c-2.5,0-4.5,2-4.6,4.5
		c-2.1,0.9-3,3.4-2.1,5.5c0.6,1.4,2.1,2.4,3.8,2.4h2.5c0.5,0,0.8-0.4,0.8-0.8c0-0.5-0.4-0.8-0.8-0.8h-2.5c-1.4,0-2.5-1.2-2.5-2.5
		c0-1.1,0.8-2.1,1.9-2.4c0.4-0.1,0.7-0.6,0.6-1c0-0.1,0-0.2,0-0.3c0-1.6,1.3-2.9,2.9-2.9h1.2c0.3,0,0.6-0.2,0.7-0.4
		c0.5-0.9,1.2-1.3,2.2-1.3c1.6,0,2.9,1.3,2.9,2.9l0,0V5c0,0.5,0.4,0.8,0.8,0.8c1.8,0,3.3,1.5,3.3,3.3s-1.5,3.3-3.3,3.3h-1.7
		c-0.5,0-0.8,0.4-0.8,0.8c0,0.5,0.4,0.8,0.8,0.8h1.8c2.8,0,5-2.2,5-5C19.948,6.7,18.148,4.6,15.748,4.2z"></path>
</g>
</svg>